<svg xmlns="http://www.w3.org/2000/svg" version="1.1" xmlns:xlink="http://www.w3.org/1999/xlink" width="200" height="200"><svg xmlns="http://www.w3.org/2000/svg" version="1.1" xmlns:xlink="http://www.w3.org/1999/xlink" viewBox="0 0 200 200"><rect width="200" height="200" fill="url('#gradient')"></rect><defs><linearGradient id="SvgjsLinearGradient1006" gradientTransform="rotate(45 0.5 0.5)"><stop offset="0%" stop-color="#e9f1f2"></stop><stop offset="100%" stop-color="#e9f1f2"></stop></linearGradient></defs><g><g fill="#273f46" transform="matrix(6.4044475330090345,0,0,6.4044475330090345,1.6263570464096375,145.53499768126582)" stroke="#e9f1f2" stroke-width="0.2"><path d="M4.73-14.22L4.73 0L1.31 0L1.31-14.22L4.73-14.22ZM14.97 0L11.94-5.29L10.54-3.75L10.54 0L7.11 0L7.11-14.22L10.54-14.22L10.54-7.95L11.73-9.76L14.79-14.22L19.03-14.22L14.23-7.93L19.03 0L14.97 0ZM28.86-8.30L28.86-5.66L23.33-5.66L23.33 0L19.90 0L19.90-14.22L29.41-14.22L29.41-11.57L23.33-11.57L23.33-8.30L28.86-8.30Z"></path></g></g></svg><style>@media (prefers-color-scheme: light) { :root { filter: none; } }
@media (prefers-color-scheme: dark) { :root { filter: none; } }
</style></svg>